<svg id="pet" xmlns="http://www.w3.org/2000/svg" width="20.68" height="20.68" viewBox="0 0 20.68 20.68">
  <path id="Vector" d="M13.115,5.515A6.839,6.839,0,0,0,6.6,0,6.73,6.73,0,0,0,.018,6.058,4.44,4.44,0,0,0,4.5,10.926H8.531a4.62,4.62,0,0,0,3.6-1.594A4.647,4.647,0,0,0,13.115,5.515Z" transform="translate(3.325 8.031)" fill="#ffa200"/>
  <path id="Vector-2" data-name="Vector" d="M5.049,2.525A2.525,2.525,0,1,1,2.525,0,2.525,2.525,0,0,1,5.049,2.525Z" transform="translate(6.333 1.723)" fill="#ff3600"/>
  <path id="Vector-3" data-name="Vector" d="M4.2,2.1A2.1,2.1,0,1,1,2.1,0,2.1,2.1,0,0,1,4.2,2.1Z" transform="translate(12.494 3.576)" fill="#ff3600"/>
  <path id="Vector-4" data-name="Vector" d="M3.361,1.68A1.68,1.68,0,1,1,1.68,0,1.68,1.68,0,0,1,3.361,1.68Z" transform="translate(16.027 7.781)" fill="#ff3600"/>
  <path id="Vector-5" data-name="Vector" d="M4.2,2.1A2.1,2.1,0,1,1,2.1,0,2.1,2.1,0,0,1,4.2,2.1Z" transform="translate(1.293 5.256)" fill="#ff3600"/>
  <path id="Vector-6" data-name="Vector" d="M0,0H20.68V20.68H0Z" fill="none" opacity="0"/>
</svg>
