<svg id="Group_172759" data-name="Group 172759" xmlns="http://www.w3.org/2000/svg" width="18.087" height="9.103" viewBox="0 0 18.087 9.103">
  <path id="Path_90622" data-name="Path 90622" d="M8.77,5.354a1.138,1.138,0,0,1-1.609,0L5.689,3.883V9.911a1.138,1.138,0,0,1-2.276,0V3.883L1.942,5.354A1.138,1.138,0,1,1,.333,3.745L3.747.332a1.142,1.142,0,0,1,1.61,0L8.77,3.745a1.137,1.137,0,0,1,0,1.609Z" transform="translate(18.087 0) rotate(90)" fill="#ffa200"/>
  <circle id="Ellipse_83" data-name="Ellipse 83" cx="1.163" cy="1.163" r="1.163" transform="translate(0 3.387)" fill="#ffa200"/>
  <circle id="Ellipse_84" data-name="Ellipse 84" cx="1.163" cy="1.163" r="1.163" transform="translate(3.578 3.387)" fill="#ffa200"/>
</svg>
