<svg xmlns="http://www.w3.org/2000/svg" width="71.168" height="71.167" viewBox="0 0 71.168 71.167">
  <g id="Group_173535" data-name="Group 173535" transform="translate(-518.744 -1150.689)">
    <path id="Path_540" data-name="Path 540" d="M637.112,54.023v5.761a3.414,3.414,0,0,1-5.083,2.948,25.252,25.252,0,0,0-17.284-2.406,24.82,24.82,0,0,0-10.913,5.354,25.491,25.491,0,0,0-4.643,5.083,25.388,25.388,0,0,0-1.458,26.265,3.414,3.414,0,0,1-2.948,5.083h-5.761a19.685,19.685,0,0,1-19.69-19.69v-28.4a19.685,19.685,0,0,1,19.69-19.69h28.4A19.685,19.685,0,0,1,637.112,54.023Z" transform="translate(-50.589 1116.356)" fill="#d98c06" opacity="0.4"/>
    <path id="Path_541" data-name="Path 541" d="M603.833,72.875a25.491,25.491,0,0,0-4.643,5.083H569.333V72.875Z" transform="translate(-50.589 1109.162)" fill="#d98c06"/>
    <path id="Path_542" data-name="Path 542" d="M585.417,60.778a2.56,2.56,0,0,1-2.542-2.542V51.458a2.542,2.542,0,1,1,5.083,0v6.778A2.56,2.56,0,0,1,585.417,60.778Z" transform="translate(-53.117 1113.634)" fill="#d98c06"/>
    <path id="Path_543" data-name="Path 543" d="M602.084,60.778a2.56,2.56,0,0,1-2.542-2.542V51.458a2.542,2.542,0,0,1,5.083,0v6.778A2.56,2.56,0,0,1,602.084,60.778Z" transform="translate(-56.228 1113.634)" fill="#d98c06"/>
    <path id="Path_544" data-name="Path 544" d="M585.417,101.4a2.561,2.561,0,0,1-2.542-2.542V92.083a2.542,2.542,0,1,1,5.083,0v6.778A2.561,2.561,0,0,1,585.417,101.4Z" transform="translate(-53.117 1106.051)" fill="#d98c06"/>
    <path id="Path_545" data-name="Path 545" d="M632.306,58.167H618.75a2.542,2.542,0,0,1,0-5.083h13.556a2.542,2.542,0,1,1,0,5.083Z" transform="translate(-59.339 1112.856)" fill="#d98c06"/>
    <path id="Path_546" data-name="Path 546" d="M627.167,71.833A20.333,20.333,0,1,0,647.5,92.167,20.35,20.35,0,0,0,627.167,71.833Zm9.93,24.4a10.728,10.728,0,0,1-9.93,6.677,10.516,10.516,0,0,1-6.3-2.1v.475a1.932,1.932,0,0,1-3.863,0V96.4a1.931,1.931,0,0,1,1.932-1.932h4.88a1.93,1.93,0,0,1,1.932,1.932,1.871,1.871,0,0,1-1.66,1.863,7.016,7.016,0,0,0,7.93-1.22,6.787,6.787,0,0,0,1.491-2.27,1.92,1.92,0,0,1,2.508-1.051A1.9,1.9,0,0,1,637.1,96.233Zm.237-8.269A1.931,1.931,0,0,1,635.4,89.9h-4.88a1.931,1.931,0,0,1-1.932-1.932,1.871,1.871,0,0,1,1.661-1.864,7.079,7.079,0,0,0-7.964,1.22,6.867,6.867,0,0,0-1.355,1.932,1.915,1.915,0,0,1-1.728,1.118,2.326,2.326,0,0,1-.813-.169,1.92,1.92,0,0,1-.915-2.576,11.722,11.722,0,0,1,2.1-3.016,10.637,10.637,0,0,1,7.591-3.152,10.515,10.515,0,0,1,6.3,2.1v-.441a1.931,1.931,0,0,1,1.932-1.932,1.881,1.881,0,0,1,1.932,1.9Z" transform="translate(-57.589 1109.356)" fill="#d98c06"/>
  </g>
</svg>
