<?xml version="1.0" standalone="no"?>
<!DOCTYPE svg PUBLIC "-//W3C//DTD SVG 20010904//EN"
 "http://www.w3.org/TR/2001/REC-SVG-20010904/DTD/svg10.dtd">
<svg version="1.0" xmlns="http://www.w3.org/2000/svg"
 width="512.000000pt" height="512.000000pt" viewBox="0 0 512.000000 512.000000"
 preserveAspectRatio="xMidYMid meet">

<g transform="translate(0.000000,512.000000) scale(0.100000,-0.100000)"
fill="#000000" stroke="none">
<path d="M1895 4684 c-240 -52 -426 -186 -529 -384 -57 -108 -77 -190 -83
-331 l-6 -126 -126 -6 c-141 -6 -223 -26 -331 -83 -137 -71 -243 -182 -316
-329 -78 -157 -75 -99 -72 -1323 l3 -1087 28 -80 c79 -225 247 -393 472 -472
l80 -28 1115 0 1115 0 70 23 c128 43 203 90 301 187 75 74 99 106 136 181 25
50 54 125 63 167 l18 75 136 4 c115 4 149 9 216 32 223 76 393 246 472 471
l28 80 0 1225 0 1225 -28 80 c-79 225 -247 393 -472 472 l-80 28 -1095 1
c-602 1 -1104 0 -1115 -2z m2186 -445 c71 -33 125 -87 158 -158 l26 -56 0
-1145 0 -1145 -26 -56 c-57 -120 -152 -179 -306 -187 l-93 -5 0 842 c0 910 0
919 -55 1052 -70 173 -229 333 -401 403 -135 55 -152 56 -944 56 l-730 0 0 88
c0 108 18 166 71 226 47 54 97 86 159 102 35 10 280 12 1065 11 l1020 -2 56
-26z m-833 -863 c60 -33 101 -76 134 -139 l23 -42 3 -1044 c3 -1176 7 -1099
-74 -1190 -26 -29 -69 -62 -102 -78 l-57 -28 -1040 0 -1040 0 -56 26 c-71 33
-125 87 -158 158 l-26 56 0 1040 0 1040 28 57 c33 67 109 140 170 162 36 13
179 14 1092 13 l1050 -2 53 -29z"/>
</g>
</svg>
