<svg id="group" xmlns="http://www.w3.org/2000/svg" width="16.779" height="14.254" viewBox="0 0 16.779 14.254">
  <path id="Path_101756" data-name="Path 101756" d="M169.815-472.959a3.323,3.323,0,0,0-.965.348,3.414,3.414,0,0,0-1.074,1.061,2.909,2.909,0,0,0,.47,3.527,2.8,2.8,0,0,0,2.049.847,2.8,2.8,0,0,0,2.049-.847,2.909,2.909,0,0,0,.47-3.527,3.414,3.414,0,0,0-1.074-1.061A3.031,3.031,0,0,0,169.815-472.959Z" transform="translate(-161.905 472.995)" fill="#ff3601"/>
  <path id="Path_101757" data-name="Path 101757" d="M35.519-389.924a2.224,2.224,0,0,0-1.461,1.281,1.911,1.911,0,0,0-.158.841,2.031,2.031,0,0,0,.217.949,2.215,2.215,0,0,0,1.428,1.153,2.574,2.574,0,0,0,1.051,0,2.356,2.356,0,0,0,1.277-.9,2.21,2.21,0,0,0,.112-2.246,2.442,2.442,0,0,0-.887-.887A2.28,2.28,0,0,0,35.519-389.924Z" transform="translate(-32.803 392.714)" fill="#d98c07"/>
  <path id="Path_101758" data-name="Path 101758" d="M347.549-389.886a2.284,2.284,0,0,0-1.363,1.074,2.219,2.219,0,0,0-.1,1.842,2.269,2.269,0,0,0,1.491,1.3,2.575,2.575,0,0,0,1.051,0,2.222,2.222,0,0,0,1.592-1.593,2.76,2.76,0,0,0,.02-.972,2.225,2.225,0,0,0-1.6-1.658A2.353,2.353,0,0,0,347.549-389.886Z" transform="translate(-334.589 392.677)" fill="#d98c07"/>
  <path id="Path_101759" data-name="Path 101759" d="M139.033-276.683a2.229,2.229,0,0,0-1.2.67,2.321,2.321,0,0,0-.617.982l-.085.253-.01,2.758c-.007,2.712-.007,2.762.059,2.867a.6.6,0,0,0,.171.171c.105.066.174.066,3.671.066s3.566,0,3.671-.066a.6.6,0,0,0,.171-.171c.066-.105.066-.154.059-2.867l-.01-2.758-.085-.253a2.321,2.321,0,0,0-.617-.982,2.322,2.322,0,0,0-.982-.617l-.253-.085-1.872-.007A16.974,16.974,0,0,0,139.033-276.683Z" transform="translate(-132.63 283.167)" fill="#d98c07"/>
  <path id="Path_101760" data-name="Path 101760" d="M2.592-238.964a2.455,2.455,0,0,0-2.016,1.737A6.729,6.729,0,0,0,.5-235.273v1.707l.076.187a1.566,1.566,0,0,0,.854.854c.181.072.22.076,1.425.085l1.238.01-.039-.108c-.049-.145-.076-5.162-.026-5.608a4.329,4.329,0,0,1,.089-.509c.03-.108.062-.23.069-.273L4.2-239l-.7,0C3.114-238.993,2.7-238.98,2.592-238.964Z" transform="translate(-0.5 246.683)" fill="#d98c07"/>
  <path id="Path_101761" data-name="Path 101761" d="M398.816-238.928c.007.043.039.164.069.273a4.329,4.329,0,0,1,.089.509c.049.447.023,5.464-.026,5.608l-.039.108,1.238-.01c1.205-.01,1.245-.013,1.425-.085a1.566,1.566,0,0,0,.854-.854l.076-.187v-1.707c0-1.7,0-1.707-.079-1.954a2.433,2.433,0,0,0-1.547-1.625,4.228,4.228,0,0,0-1.422-.148H398.8Z" transform="translate(-385.722 246.683)" fill="#d98c07"/>
</svg>
