<svg id="vuesax_bold_messages" data-name="vuesax/bold/messages" xmlns="http://www.w3.org/2000/svg" width="21.546" height="21.546" viewBox="0 0 21.546 21.546">
  <g id="messages">
    <path id="Vector" d="M0,0H21.546V21.546H0Z" fill="none" opacity="0"/>
    <path id="Vector-2" data-name="Vector" d="M10.046,0H4.3a5.445,5.445,0,0,0-.673.036C1.212.242,0,1.67,0,4.3V7.891c0,3.591,1.436,4.3,4.3,4.3h.359a.829.829,0,0,1,.575.287l1.077,1.436a1.016,1.016,0,0,0,1.724,0l1.077-1.436a.723.723,0,0,1,.575-.287h.359c2.63,0,4.058-1.2,4.264-3.627a5.445,5.445,0,0,0,.036-.673V4.3Q14.346,0,10.046,0ZM4.04,7.182a.9.9,0,1,1,.9-.9A.895.895,0,0,1,4.04,7.182Zm3.133,0a.9.9,0,1,1,.9-.9A.895.895,0,0,1,7.173,7.182Zm3.142,0a.9.9,0,1,1,.9-.9A.895.895,0,0,1,10.315,7.182Z" transform="translate(1.796 5.387)" fill="#ffa200"/>
    <path id="Vector-3" data-name="Vector" d="M13.782,4.3V7.891c0,1.8-.557,3.016-1.67,3.69a.393.393,0,0,1-.584-.368l.009-3.322c0-3.591-2.056-5.647-5.647-5.647L.423,2.253A.393.393,0,0,1,.055,1.67C.728.557,1.949,0,3.736,0H9.481Q13.777,0,13.782,4.3Z" transform="translate(5.951 1.796)" fill="#ff3600"/>
  </g>
</svg>
